<?xml version="1.0" encoding="UTF-8"?>
<svg width="1280px" height="720px" viewBox="0 0 1280 720" version="1.1" xmlns="http://www.w3.org/2000/svg" xmlns:xlink="http://www.w3.org/1999/xlink">
    <!-- Generator: Sketch 54.1 (76490) - https://sketchapp.com -->
    <title>thumb</title>
    <desc>Created with Sketch.</desc>
    <g id="thumb" stroke="none" stroke-width="1" fill="none" fill-rule="evenodd">
        <rect fill="#F5F5F5" x="0" y="0" width="1280" height="720"></rect>
        <path d="M763.046875,268.796875 C769.550781,275.300781 775,288.308594 775,297.625 L775,500.125 C775,509.441406 767.441406,517 758.125,517 L521.875,517 C512.558594,517 505,509.441406 505,500.125 L505,218.875 C505,209.558594 512.558594,202 521.875,202 L679.375,202 C688.691406,202 701.699219,207.449219 708.203125,213.953125 L763.046875,268.796875 Z M685,226 L685,292 L751,292 C749.946809,289.015957 748.367021,286.031915 747.138298,284.803191 L692.196809,229.861702 C690.968085,228.632979 687.984043,227.053191 685,226 Z M753,495 L753,315 L679.875,315 C670.558594,315 663,307.441406 663,298.125 L663,225 L528,225 L528,495 L753,495 Z" id="fa-file-o" fill="#333333" fill-rule="nonzero"></path>
    </g>
</svg>